#tb 0: 1/25
#media_type 0: video
#codec_id 0: rawvideo
#dimensions 0: 352x288
#sar 0: 0/1
0,          0,          0,        1,   152064, 0xdb0946b2
0,          1,          1,        1,   152064, 0x950c6b50
0,          2,          2,        1,   152064, 0x42e3da48
0,          3,          3,        1,   152064, 0xb63d4ff1
0,          4,          4,        1,   152064, 0x92dd1a4f
0,          5,          5,        1,   152064, 0xf2fc27bb
0,          6,          6,        1,   152064, 0xfea2547e
0,          7,          7,        1,   152064, 0x860b44f5
0,          8,          8,        1,   152064, 0xc1a5507b
0,          9,          9,        1,   152064, 0x4f89978c
0,         10,         10,        1,   152064, 0xde8c8941
0,         11,         11,        1,   152064, 0xafcbd3bd
0,         12,         12,        1,   152064, 0x19af2340
0,         13,         13,        1,   152064, 0xbbd42e7e
0,         14,         14,        1,   152064, 0x8e1c42c4
0,         15,         15,        1,   152064, 0x37a4c19c
0,         16,         16,        1,   152064, 0x528a8289
0,         17,         17,        1,   152064, 0x2f6397d9
0,         18,         18,        1,   152064, 0xee5265d5
0,         19,         19,        1,   152064, 0xed64f493
0,         20,         20,        1,   152064, 0xe436db22
0,         21,         21,        1,   152064, 0x42f9ac8f
0,         22,         22,        1,   152064, 0x9c63b348
0,         23,         23,        1,   152064, 0xb19967b2
0,         24,         24,        1,   152064, 0x12b7d6bc
0,         25,         25,        1,   152064, 0x4b69376b
0,         26,         26,        1,   152064, 0x9ce939ec
0,         27,         27,        1,   152064, 0x0940f80b
0,         28,         28,        1,   152064, 0x69ee2c4c
0,         29,         29,        1,   152064, 0x72fd6b93
0,         30,         30,        1,   152064, 0xd12365d7
0,         31,         31,        1,   152064, 0xfe1c0b83
0,         32,         32,        1,   152064, 0x095ad405
0,         33,         33,        1,   152064, 0xfe825671
0,         34,         34,        1,   152064, 0x60d68d29
0,         35,         35,        1,   152064, 0xe6243ba6
0,         36,         36,        1,   152064, 0x942998f6
0,         37,         37,        1,   152064, 0x3bb3cea9
0,         38,         38,        1,   152064, 0xd5b97755
0,         39,         39,        1,   152064, 0x584d81c4
0,         40,         40,        1,   152064, 0x0e4d777c
0,         41,         41,        1,   152064, 0x0bdc3299
0,         42,         42,        1,   152064, 0xbff210f8
0,         43,         43,        1,   152064, 0x8964afb5
0,         44,         44,        1,   152064, 0xe361cc30
0,         45,         45,        1,   152064, 0x7f0c522e
0,         46,         46,        1,   152064, 0xd6d17ca2
0,         47,         47,        1,   152064, 0x72380adf
0,         48,         48,        1,   152064, 0x25391c1e
0,         49,         49,        1,   152064, 0x9506f7a8
